<svg width="100" height="100" viewBox="0 0 100 100" fill="none" xmlns="http://www.w3.org/2000/svg">
<g clip-path="url(#clip0_26_7)">
<path d="M55.969 7C55.4808 7.01172 55.0159 7.19922 54.6565 7.53125C43.6725 17.6562 38.2655 30.5393 36.6255 42.8083C35.8599 39.695 35.5708 36.316 35.0005 31.7462C34.9107 30.9298 34.3287 30.2501 33.5317 30.0392C32.7388 29.8244 31.895 30.1174 31.4067 30.7775C21.2737 43.9415 19.0007 51.7575 19.0007 63.9925C19.0007 78.2625 29.0597 87.7345 40.4697 90.9265C41.3096 91.1609 42.2041 90.825 42.6845 90.0984C43.1611 89.3679 43.1142 88.4148 42.5634 87.739C40.4892 85.1335 39.0009 81.3367 39.0009 78.0202C39.0009 74.9186 39.4736 71.9421 40.5009 69.239C41.3369 71.032 42.3564 72.6452 43.3134 74.114C43.7939 74.8679 44.7118 75.2117 45.5712 74.9578C46.4267 74.7039 47.0087 73.9148 47.0009 73.0203C47.0009 68.2 48.6767 61.3953 52.0947 56.4303C53.4502 60.5748 55.4033 63.8248 57.0947 66.7113C59.3017 70.4769 61.0009 73.5902 61.0009 78.0233C61.0009 81.3749 59.5126 85.1366 57.4384 87.7733V87.7694C56.9267 88.4412 56.8916 89.3671 57.3564 90.0741C57.8174 90.785 58.6767 91.1249 59.5009 90.9256C71.2819 87.824 81.0009 78.3436 81.0009 63.9916C81.0009 52.4406 76.1767 44.6436 71.0321 36.8706C65.8876 29.0972 60.3911 21.2146 57.9701 8.62461C57.7865 7.66758 56.9428 6.98011 55.9701 6.99961L55.969 7ZM55.0003 12.9062C57.887 24.2182 63.1019 32.1172 67.7193 39.0902C72.8248 46.805 77.0005 53.5312 77.0005 63.9922C77.0005 74.4882 71.3482 81.5662 63.4385 85.2382C64.3916 82.957 65.001 80.5194 65.001 78.0194C65.001 72.5389 62.8057 68.5077 60.5635 64.6794C58.3213 60.8513 55.9971 57.1247 54.9697 51.6524V51.6485C54.8369 50.9258 54.3212 50.336 53.622 50.1055C52.9267 49.8789 52.1572 50.0508 51.6259 50.5547C47.1845 54.7422 44.8525 60.7067 43.7821 66.2387C43.493 65.434 43.1102 64.6684 43.0008 63.7699V63.7738C42.911 62.9574 42.329 62.2777 41.532 62.0629C40.7391 61.852 39.8953 62.145 39.407 62.8051C36.0554 67.2739 35.0008 72.7543 35.0008 78.0201C35.0008 80.4303 35.5672 82.8131 36.4696 85.0513C28.8055 81.2857 23.0006 74.2313 23.0006 63.9923C23.0006 53.6373 24.6764 47.3713 31.6881 37.3713C32.3209 42.6057 33.11 47.2268 36.3443 52.0863C36.8326 52.809 37.7349 53.1332 38.5748 52.8793C39.4108 52.6293 39.9889 51.8676 40.0006 50.9926C40.0006 38.3716 44.2662 24.1406 55.0006 12.9026L55.0003 12.9062Z" fill="black"/>
</g>
<defs>
<clipPath id="clip0_26_7">
<rect width="100" height="100" fill="white"/>
</clipPath>
</defs>
</svg>
