<svg width="100" height="100" viewBox="0 0 100 100" fill="none" xmlns="http://www.w3.org/2000/svg">
<g clip-path="url(#clip0_26_7)">
<path d="M22.562 12L19.8823 14.9883L28.855 23.043L31.5347 20.0547L22.562 12ZM46.835 12.4727C41.21 12.4727 35.987 16.5977 31.94 22.3516C27.9088 28.0821 24.9712 35.6486 24.4009 43.4646C23.9868 49.6013 24.7056 55.4256 26.6743 60.1096C28.7837 64.969 32.5532 68.8557 37.6433 68.8557C40.7331 68.8557 43.7019 67.5588 46.4324 65.4885C52.8504 62.7932 58.8304 61.8283 64.9714 61.8088C67.8073 69.0471 61.5847 76.8558 58.4284 81.8828C58.0612 82.4687 58.026 83.2461 58.3346 83.8633C59.2487 85.711 60.9127 86.8672 62.8541 87.9844C64.7955 89.1055 66.9244 90 69.0846 90C71.7799 90 73.7682 88.0273 75.1002 85.7539C78.9986 78.7773 79.6471 70.3949 83.608 63.5389C84.4869 63.6717 85.2721 63.7498 86.0377 63.8201C93.1275 63.8201 98.9987 57.8904 98.9987 50.7301C98.9636 44.7418 93.612 38.8821 88.3737 37.6711C76.6467 34.7063 67.3117 31.8547 57.8037 22.3781C55.9248 17.1008 52.4287 12.4953 46.8347 12.4679L46.835 12.4727ZM46.835 16.5C50.9834 16.4687 53.1162 21.1484 54.3155 24.4609C55.4171 27.5664 56.0772 31.3632 56.1241 35.3479C51.8546 34.8283 47.3389 34.1018 43.1631 33.6174C41.2529 33.6174 39.6592 34.8049 38.6748 36.2932C37.6943 37.7815 37.1787 39.6409 37.1787 41.6721C37.1787 43.7033 37.6943 45.5979 38.6748 47.0823C39.5849 48.4612 41.0342 49.5393 42.7568 49.6956L52.2295 52.0862C51.0928 54.262 49.7529 56.3362 48.2725 58.1292C44.8389 62.2854 40.7608 64.8323 37.6475 64.8323C34.5616 64.8323 32.1123 62.5471 30.3545 58.5081C28.3975 53.1097 27.9639 48.2891 28.3897 43.8441C28.8858 36.8246 31.5772 29.8091 35.1827 24.6841C38.46 20.481 42.5577 16.6411 46.8347 16.5044L46.835 16.5ZM5.01899 20.6836L3.52289 24.4297L20.4759 31.4766L21.972 27.7305L5.01899 20.6836ZM59.613 29.3984C64.7927 33.5312 70.086 36.1367 75.629 38.1132C79.7618 45.1835 78.0313 52.7812 72.8556 58.1562C65.965 57.5429 59.3326 57.5937 52.4146 59.289C58.8091 50.1601 61.1286 40.2464 59.613 29.3984ZM43.035 37.6718C44.7186 38.0194 45.1405 40.328 45.1522 41.6679C45.1717 43.5117 44.6248 45.3163 43.1561 45.6952C41.6756 45.3045 41.1756 43.1132 41.16 41.6679C41.2655 39.6796 41.9217 37.8359 43.0311 37.6718H43.035ZM48.6444 38.4257L55.9374 39.4022C55.6991 42.4452 54.9374 45.6366 53.9101 48.3397L47.8007 46.7967C48.6679 45.3553 49.1405 43.574 49.1405 41.6678C49.0819 40.5272 48.9374 39.367 48.6405 38.4256L48.6444 38.4257ZM4.39839 38.6444L4.14839 42.6717L22.0974 43.6795L22.3474 39.6522L4.39839 38.6444ZM80.7104 39.746C82.7456 40.3398 84.8198 40.9062 86.9409 41.4452C90.7573 47.1679 89.1948 54.9922 85.2573 59.6952C82.644 59.3398 80.1167 58.9882 77.6245 58.6874C81.5737 53.3202 83.0112 46.382 80.7104 39.746ZM92.8004 44.7499C93.9606 46.4804 94.9801 48.7226 95.0113 50.7265C95.0113 53.832 93.3902 56.6406 90.9605 58.2773C92.9644 53.8593 93.7417 49.1914 92.8003 44.7463L92.8004 44.7499ZM14.9604 53.7811L0.99939 55.7967L1.56189 59.7928L15.5229 57.7772L14.9604 53.7811ZM25.0894 61.1756L12.1284 70.2381L14.3706 73.5428L27.3316 64.4803L25.0894 61.1756ZM74.0114 62.3084C75.7145 62.4842 77.4684 62.7381 79.2458 62.9686C75.5856 69.8436 75.3669 77.1986 71.6442 83.7026C70.6364 85.4253 69.8825 85.9682 69.0895 85.9682C68.3551 85.9682 66.8278 85.4916 65.4137 84.7729C70.2848 77.7221 73.6364 70.4179 74.0153 62.3079L74.0114 62.3084Z" fill="black"/>
</g>
<defs>
<clipPath id="clip0_26_7">
<rect width="100" height="100" fill="white"/>
</clipPath>
</defs>
</svg>
