<svg width="100" height="100" viewBox="0 0 100 100" fill="none" xmlns="http://www.w3.org/2000/svg">
<g clip-path="url(#clip0_18_2)">
<path d="M17.52 44.039C14.2544 46.3984 11.6762 48.8867 9.93798 51.3749C7.83248 54.3866 7.00828 57.3554 7.79738 59.9882C9.14118 64.5038 14.8638 67.7226 23.0204 69.2734C28.0477 70.2265 33.9184 70.5156 40.2474 70.0586C38.8802 69.082 37.6185 67.9727 36.5052 66.7461C33.47 63.3945 31.5286 59.1836 31.5286 54.2851V39.3081C31.5364 38.0854 32.2942 36.937 33.5091 36.4956C36.1146 35.5502 38.7161 34.4487 41.263 33.2183C43.7005 32.0386 46.0872 30.73 48.3763 29.3042C49.3177 28.6909 50.5677 28.6401 51.5872 29.2729C53.888 30.7104 56.2981 32.0307 58.7513 33.2182C61.224 34.4135 63.7552 35.4877 66.2865 36.4174C67.5521 36.769 68.4818 37.9291 68.4818 39.308V56.343C68.4779 56.6086 68.4388 56.8821 68.3646 57.1516L67.8138 59.0969C67.224 61.1907 66.2747 63.1008 65.0638 64.8117C69.3802 63.2765 73.3294 61.4992 76.8138 59.5617C76.8997 59.507 76.9896 59.4601 77.0794 59.4133C80.2903 57.6086 83.095 55.6672 85.4192 53.6516C90.6223 49.1438 93.2864 44.425 92.3215 40.3856L92.2161 40.0106C91.4973 37.6122 89.4895 35.5536 86.5169 33.9208C85.3138 33.2606 83.9661 32.6747 82.4857 32.163V50.893C82.4857 52.5492 81.1419 53.893 79.4857 53.893C77.8295 53.893 76.4857 52.5492 76.4857 50.893V31.159C75.1693 30.8347 73.8451 30.4636 72.5209 30.0535C72.3919 30.0222 72.2669 29.9831 72.1419 29.9324C68.6771 28.8308 65.22 27.4441 61.9469 25.8347C57.5211 23.6667 53.4078 21.1003 50.0019 18.2995C46.5957 21.1003 42.4824 23.6706 38.0569 25.8347C33.4085 28.112 28.4085 29.9519 23.5179 31.155V54.272C23.5179 55.5376 23.6039 56.7564 23.7758 57.9673C23.9554 59.2095 24.2093 60.3657 24.5336 61.4829C24.9906 63.0688 24.0804 64.729 22.4945 65.186C20.9086 65.643 19.2484 64.7328 18.7914 63.1469C18.3812 61.7446 18.0648 60.3149 17.85 58.8149C17.6312 57.2758 17.5179 55.7719 17.5179 54.2719V44.0299L17.52 44.039ZM73.832 24.199C79.9687 24.9021 85.309 26.4217 89.398 28.6678C93.7535 31.0623 96.7613 34.3006 97.9527 38.2967L98.1285 38.9764C99.6676 45.3905 96.2496 52.1754 89.3316 58.1714C86.941 60.2417 84.1168 62.2339 80.9254 64.0972C78.9176 70.2574 75.0777 75.6362 70.0384 79.8202C64.6478 84.2929 57.8784 87.4022 50.5304 88.6171C50.2061 88.6757 49.8663 88.6796 49.5226 88.6249C44.6046 87.8163 39.9562 86.1718 35.8196 83.8476C31.9993 81.7031 28.5891 78.9609 25.7726 75.7499C24.4445 75.5897 23.1554 75.3905 21.9132 75.1561C11.5342 73.1834 4.08916 68.5389 2.05016 61.6992C0.706358 57.1953 1.87047 52.4804 5.03456 47.9492C7.77676 44.0234 12.0658 40.2108 17.5146 36.8281V28.7734C17.5224 27.3828 18.4989 26.1328 19.9169 25.8437C25.0692 24.789 30.4679 22.9023 35.4289 20.4726C40.2453 18.1132 44.6359 15.2421 47.9599 12.1367C49.0966 11.0742 50.8818 11.0625 52.038 12.1367C55.3622 15.2461 59.7528 18.1133 64.569 20.4726C67.5456 21.9335 70.6823 23.1953 73.8268 24.1992L73.832 24.199ZM72.2968 68.41C69.1445 69.7577 65.7734 70.9764 62.2308 72.035C60.5746 72.5272 58.7738 73.0116 56.8324 73.4764C49.2699 75.2967 41.8674 76.1873 35.0904 76.242C36.2466 77.1053 37.4693 77.8982 38.7506 78.617C42.1725 80.5389 45.985 81.9178 50.0046 82.6326C56.1335 81.5428 61.7466 78.9334 66.2196 75.2224C68.6024 73.2458 70.661 70.949 72.2977 68.406L72.2968 68.41Z" fill="#A92CC2"/>
</g>
<defs>
<clipPath id="clip0_18_2">
<rect width="100" height="100" fill="white"/>
</clipPath>
</defs>
</svg>
