<svg width="100" height="100" viewBox="0 0 100 100" fill="none" xmlns="http://www.w3.org/2000/svg">
<g clip-path="url(#clip0_56_7)">
<path d="M70.0298 49.6562C69.9565 48.8124 69.6173 48.0137 69.061 47.375L37.061 10.375C36.7225 9.9584 36.3037 9.61419 35.8294 9.36285C35.3551 9.11151 34.8351 8.95821 34.3003 8.91204C33.7655 8.86588 33.2269 8.92778 32.7166 9.09411C32.2062 9.26045 31.7346 9.52776 31.3297 9.88018C30.9248 10.2326 30.595 10.6629 30.3599 11.1454C30.1248 11.628 29.9892 12.1529 29.9613 12.689C29.9333 13.225 30.0134 13.7612 30.197 14.2656C30.3805 14.77 30.6637 15.2323 31.0297 15.625L60.7485 50L31.0297 84.375C30.6637 84.7677 30.3805 85.23 30.197 85.7344C30.0134 86.2388 29.9333 86.775 29.9613 87.311C29.9892 87.8471 30.1248 88.3719 30.3599 88.8545C30.595 89.337 30.9248 89.7673 31.3297 90.1198C31.7346 90.4722 32.2062 90.7395 32.7166 90.9059C33.2269 91.0722 33.7655 91.1342 34.3003 91.088C34.8351 91.0418 35.3551 90.8885 35.8294 90.6372C36.3037 90.3859 36.7225 90.0416 37.061 89.625L69.061 52.625C69.4133 52.2204 69.6806 51.7491 69.8471 51.2391C70.0135 50.729 70.0756 50.1907 70.0298 49.6562Z" fill="black"/>
</g>
<defs>
<clipPath id="clip0_56_7">
<rect width="100" height="100" fill="white"/>
</clipPath>
</defs>
</svg>
